# AST/ASF file generated using VICON BodyLanguage
# -----------------------------------------------
:version 1.10
:name VICON
:units
  mass 1.0
  length 0.45
  angle deg
:documentation
   .ast/.asf automatically generated from VICON data using
   VICON BodyBuilder and BodyLanguage model FoxedUp or BRILLIANT.MOD
:root
   order TX TY TZ RX RY RZ
   axis XYZ
   position 0 0 0  
   orientation 0 0 0 
:bonedata
  begin
     id 1 
     name lhipjoint
     direction 0.660183 -0.676772 0.325788 
     length 2.75133 
     axis 0 0 0  XYZ
  end
  begin
     id 2 
     name lfemur
     direction 0.34202 -0.939693 0  
     length 7.70317  
     axis 0 0 20  XYZ
    dof rx ry rz
    limits (-160.0 20.0)
           (-70.0 70.0)
           (-60.0 70.0)
  end
  begin
     id 3 
     name ltibia
     direction 0.342105 -0.939662 0   
     length 7.18701   
     axis 0 0 20   XYZ
    dof rx
    limits (-10.0 170.0)
  end
  begin
     id 4 
     name lfoot
     direction 0.14163 -0.389126 0.910232   
     length 2.41719   
     axis -90 7.62852e-016 20   XYZ
    dof rx rz
    limits (-45.0 90.0)
           (-70.0 20.0)
  end
  begin
     id 5 
     name ltoes
     direction 1.53533e-011 -4.21926e-011 1   
     length 1.18611   
     axis -90 7.62852e-016 20   XYZ
    dof rx
    limits (-90.0 20.0)
  end
  begin
     id 6 
     name rhipjoint
     direction -0.6658 -0.67229 0.323631   
     length 2.76968  
     axis 0 0 0  XYZ 
  end
  begin
     id 7 
     name rfemur
     direction -0.34202 -0.939693 0   
     length 7.92547   
     axis 0 0 -20   XYZ
    dof rx ry rz
    limits (-160.0 20.0)
           (-70.0 70.0)
           (-70.0 60.0)
  end
  begin
     id 8 
     name rtibia
     direction -0.342022 -0.939692 0   
     length 7.22641   
     axis 0 0 -20   XYZ
    dof rx
    limits (-10.0 170.0)
 end
 begin
     id 9 
     name rfoot
     direction -0.105675 -0.29034 0.951071   
     length 2.48149  
     axis -90 -7.62852e-016 -20   XYZ
    dof rx rz
    limits (-45.0 90.0)
           (-20.0 70.0)
  end
  begin
     id 10 
     name rtoes
     direction -1.5349e-011 -4.21859e-011 1   
     length 1.23343   
     axis -90 -7.62852e-016 -20   XYZ
    dof rx
    limits (-90.0 20.0)
  end
  begin
     id 11 
     name lowerback
     direction 0.0104173 0.993624 -0.112266   
     length 2.00527   
     axis 0 0 0   XYZ
    dof rx ry rz
    limits (-20.0 45.0)
           (-30.0 30.0)
           (-30.0 30.0)
  end
  begin
     id 12 
     name upperback
     direction 0.00733149 0.999856 -0.0152913   
     length 2.01385   
     axis 0 0 0   XYZ
    dof rx ry rz
    limits (-20.0 45.0)
           (-30.0 30.0)
           (-30.0 30.0)
  end
  begin
     id 13 
     name thorax
     direction 0.0026304 0.999318 0.036841   
     length 2.03734   
     axis 0 0 0   XYZ
    dof rx ry rz
    limits (-20.0 45.0)
           (-30.0 30.0)
           (-30.0 30.0)
  end
  begin
     id 14 
     name lowerneck
     direction 0.0293154 0.998757 0.0403082   
     length 1.65303   
     axis 0 0 0   XYZ
    dof rx ry rz
    limits (-20.0 45.0)
           (-30.0 30.0)
           (-30.0 30.0)
  end
  begin
     id 15 
     name upperneck
     direction -0.0376619 0.998184 -0.0470083   
     length 1.60926   
     axis 0 0 0   XYZ
    dof rx ry rz
    limits (-20.0 45.0)
           (-30.0 30.0)
           (-30.0 30.0)
  end
  begin
     id 16
     name head
     direction -0.0170133 0.999635 -0.0209778  
     length 1.73625  
     axis 0 0 0   XYZ
    dof rx ry rz
    limits (-20.0 45.0)
           (-30.0 30.0)
           (-30.0 30.0)
  end
  begin
     id 17 
     name lclavicle
     direction 0.919857 0.39181 -0.0186333  
     length 3.75313  
     axis 0 0 0   XYZ
    dof ry rz
    limits (-20.0 10.0)
           (0.0 20.0)
  end
  begin
     id 18 
     name lhumerus
     direction 1 -4.48988e-011 1.44029e-027   
     length 5.49313   
     axis 180 -30 -90   XYZ
    dof rx ry rz
    limits (-60.0 90.0)
           (-90.0 90.0)
           (-90.0 90.0)
  end
  begin
     id 19
     name lradius
     direction 1 -4.48924e-011 7.46281e-027   
     length 3.29037   
     axis 180 -30 -90   XYZ
    dof rx
    limits (-10.0 170.0)
  end
  begin
     id 20
     name lwrist
     direction 1 -4.48955e-011 2.19879e-026   
     length 1.64519   
     axis -1.34358e-014 90 90   XYZ
    dof ry
    limits (-180.0 0.0)
 end
  begin
     id 21 
     name lhand
     direction 1 -4.48978e-011 4.39747e-026   
     length 0.729656   
     axis -2.80598e-014 90 90   XYZ
    dof rx rz
    limits (-90.0 90.0)
           (-45.0 45.0)
  end
  begin
     id 22 
     name lfingers
     direction 1 -4.49071e-011 8.79411e-026   
     length 0.588268   
     axis -5.61193e-014 90 90   XYZ
    dof rx
    limits (0.0 90.0)
  end
  begin
     id 23
     name lthumb
     direction 0.707107 -6.34817e-011 0.707107   
     length 0.844638   
     axis -90 45 -9.86923e-015   XYZ
    dof rx rz
    limits (-45.0 45.0)
           (-45.0 45.0)
  end
  begin
     id 24 
     name rclavicle
     direction -0.919898 0.388279 0.0550233   
     length 3.7171  
     axis 0 0 0   XYZ 
    dof ry rz
    limits (-10.0 20.0)
           (-20.0 0.0)
  end
  begin
     id 25 
     name rhumerus
     direction -1 -4.48968e-011 9.98372e-028  
     length 5.23684   
     axis 180 30 90   XYZ
    dof rx ry rz
    limits (-90.0 60.0)
           (-90.0 90.0)
           (-90.0 90.0)
  end
  begin
     id 26 
     name rradius
     direction -1 -4.48956e-011 1.01023e-026   
     length 3.38251   
     axis 180 30 90   XYZ
    dof rx
    limits (-10.0 170.0)
  end
  begin
     id 27 
     name rwrist
     direction -1 -4.4892e-011 2.19886e-026   
     length 1.69126   
     axis -1.34358e-014 -90 -90   XYZ
    dof ry
    limits (-180.0 0.0)
  end
  begin
     id 28
     name rhand
     direction -1 -4.49024e-011 4.39727e-026   
     length 0.691454   
     axis -2.80598e-014 -90 -90   XYZ
    dof rx rz
    limits (-90.0 90.0)
           (-45.0 45.0)
  end
  begin
     id 29
     name rfingers
     direction -1 -4.49097e-011 8.79388e-026   
     length 0.557468   
     axis -5.61193e-014 -90 -90   XYZ
    dof rx
    limits (0.0 90.0)
  end
  begin
     id 30
     name rthumb
     direction -0.707107 -6.34938e-011 0.707107   
     length 0.800416   
     axis -90 -45 9.86923e-015   XYZ
    dof rx rz
    limits (-45.0 45.0)
           (-45.0 45.0)
  end
:hierarchy
  begin
    root lhipjoint rhipjoint lowerback
    lhipjoint lfemur
    lfemur ltibia
    ltibia lfoot
    lfoot ltoes
    rhipjoint rfemur
    rfemur rtibia
    rtibia rfoot
    rfoot rtoes
    lowerback upperback
    upperback thorax
    thorax lowerneck lclavicle rclavicle
    lowerneck upperneck
    upperneck head
    lclavicle lhumerus
    lhumerus lradius
    lradius lwrist
    lwrist lhand lthumb
    lhand lfingers
    rclavicle rhumerus
    rhumerus rradius
    rradius rwrist
    rwrist rhand rthumb
    rhand rfingers
  end

#!OML:ASF H:\BabyWalks\Project 1\Capture day 1\Session 1\baby.ASF
:FULLY-SPECIFIED
:DEGREES
296
root -19.815 17.2311 -2.17085 -31.7227 83.5929 -37.5568
lowerback 19.5445 1.27579 -4.28475
upperback 5.53086 1.028 -2.794
thorax -4.95883 0.677194 -0.803409
lowerneck -2.82629 -0.98316 4.13567
upperneck -2.35858 -1.28402 4.39676
head -0.253035 -0.64213 0.652269
rclavicle 2.22639e-014 -3.18055e-014
rhumerus -47.9682 9.86547 -86.9124
rradius 48.828
rwrist -10.3434
rhand -16.3036 -16.2758
rfingers 7.12502
rthumb 9.90725 -46.0227
lclavicle 2.22639e-014 -3.18055e-014
lhumerus -53.5246 -12.0613 77.1295
lradius 44.289
lwrist -3.85267
lhand 4.90684 4.66905
lfingers 7.12502
lthumb 30.2811 32.205
rfemur -3.02253 11.373 21.5563
rtibia 51.6052
rfoot -14.1666 15.9093
rtoes -18.5387
lfemur -28.8232 -1.68242 -11.4078
ltibia 44.5736
lfoot -24.1527 -10.4243
ltoes -1.42795
297
root -19.665 17.2198 -2.17291 -28.4814 83.6887 -34.2136
lowerback 19.6186 1.20895 -4.69719
upperback 5.57024 0.856302 -2.98168
thorax -4.95177 0.599084 -0.732241
lowerneck -2.84902 -0.914101 4.06302
upperneck -2.35005 -1.1906 4.45778
head -0.24617 -0.594102 0.683027
rclavicle -1.03368e-014 2.38542e-014
rhumerus -47.934 9.78645 -87.0088
rradius 48.5552
rwrist -9.6557
rhand -17.1662 -16.3786
rfingers 7.12502
rthumb 9.07501 -46.1634
lclavicle -1.03368e-014 2.38542e-014
lhumerus -51.9595 -12.5437 76.6254
lradius 43.743
lwrist -5.2755
lhand 4.91356 4.34422
lfingers 7.12502
lthumb 30.2875 31.879
rfemur -4.5558 11.1185 20.8382
rtibia 54.4473
rfoot -14.583 16.3635
rtoes -18.5051
lfemur -28.196 -1.47817 -11.9301
ltibia 44.7188
lfoot -24.6768 -10.4805
ltoes -1.29222
298
root -19.5143 17.2204 -2.17552 -25.9563 83.7458 -31.6092
lowerback 19.6805 1.11728 -5.003
upperback 5.60302 0.673647 -3.12838
thorax -4.94385 0.514339 -0.674674
lowerneck -2.89877 -0.836413 4.00145
upperneck -2.29301 -1.09075 4.49799
head -0.220548 -0.541334 0.70543
rclavicle 1.03368e-014 1.59028e-014
rhumerus -47.8869 9.68351 -87.052
rradius 48.2608
rwrist -8.80449
rhand -17.7443 -16.4289
rfingers 7.12502
rthumb 8.5171 -46.2372
lclavicle 1.03368e-014 1.59028e-014
lhumerus -50.3508 -12.864 76.0026
lradius 43.3186
lwrist -6.6508
lhand 4.74428 4.04051
lfingers 7.12502
lthumb 30.126 31.6049
rfemur -6.08806 10.8352 20.2292
rtibia 57.0123
rfoot -15.0183 16.785
rtoes -18.764
lfemur -27.5492 -1.30556 -12.3509
ltibia 44.8134
lfoot -25.1889 -10.5262
ltoes -1.18037
299
root -19.3672 17.2126 -2.17834 -24.0991 83.7898 -29.6873
lowerback 19.7436 1.00109 -5.2254
upperback 5.62746 0.474963 -3.23507
thorax -4.94439 0.420772 -0.617611
lowerneck -2.97341 -0.752058 3.94795
upperneck -2.18961 -0.986788 4.5176
head -0.17709 -0.485081 0.720116
rclavicle 1.66979e-014 -2.22639e-014
rhumerus -47.8492 9.56831 -87.0431
rradius 47.9732
rwrist -7.86979
rhand -18.0381 -16.4175
rfingers 7.12502
rthumb 8.23354 -46.2371
lclavicle 1.66979e-014 -2.22639e-014
lhumerus -48.7229 -13.0069 75.2816
lradius 43.032
lwrist -7.92225
lhand 4.35974 3.76305
lfingers 7.12502
lthumb 29.7591 31.3937
rfemur -7.64611 10.5254 19.7156
rtibia 59.3481
rfoot -15.4743 17.1515
rtoes -19.1606
lfemur -26.9507 -1.16877 -12.682
ltibia 44.9069
lfoot -25.6692 -10.5706
ltoes -1.09855
300
root -19.2217 17.2072 -2.18047 -22.7577 83.8417 -28.2948
lowerback 19.809 0.872503 -5.38862
upperback 5.63982 0.270679 -3.30977
thorax -4.95858 0.323789 -0.558395
lowerneck -3.04032 -0.671643 3.91395
upperneck -2.06815 -0.889534 4.51938
head -0.12962 -0.43206 0.726286
rclavicle 2.38542e-015 -7.95139e-015
rhumerus -47.8342 9.41851 -86.9859
rradius 47.6986
rwrist -6.93409
rhand -18.0712 -16.3312
rfingers 7.12502
rthumb 8.2016 -46.1521
lclavicle 2.38542e-015 -7.95139e-015
lhumerus -47.1009 -13.0087 74.494
lradius 42.9009
lwrist -9.022
lhand 3.71859 3.52639
lfingers 7.12502
lthumb 29.147 31.2648
rfemur -9.20352 10.1884 19.2823
rtibia 61.4107
rfoot -15.9367 17.4387
rtoes -19.6252
lfemur -26.3582 -1.06967 -12.9519
ltibia 44.9568
lfoot -26.1162 -10.6206
ltoes -1.03302
